<svg width="223" height="77" viewBox="0 0 223 77" fill="none" xmlns="http://www.w3.org/2000/svg">
<path d="M176 13.2572C176 4.68572 169.829 0.685722 161.143 0.685722H146.171V39.1429H155.486V25.8857H158.286C158.971 25.8857 159.886 25.8857 160.514 25.8286L170.286 39.1429H182.057L169.714 23.6571C173.943 21.3143 176 17.5429 176 13.2572ZM158.686 19.4286H155.543V8H160C164.971 8 166.514 9.65715 166.514 13.4857C166.457 17.1429 164.171 19.4286 158.686 19.4286Z" fill="black"/>
<path d="M81.7715 32.9143L71.7143 0.685722H62.5143L65.7715 10L56.8572 33.2L50.8572 0.685722H41.8857L50.1715 39.0857H62.0572L69.2572 19.4286L69.3143 19.5429L75.8857 39.0857H87.5429L98.0572 0.685722H89.2572L81.7715 32.9143Z" fill="black"/>
<path d="M221.943 39.0857L205.543 18.6857L221.086 0.685722H209.314L196.629 16.5143V0.685722H187.371V39.0857H196.629V20.4571L210.171 39.0857H221.943Z" fill="black"/>
<path d="M20 0C8.97143 0 0 8.97143 0 20C0 31.0286 8.97143 40 20 40C31.0286 40 40 31.0286 40 20C40 8.97143 31.0286 0 20 0ZM20 31.4857C13.6571 31.4857 8.51429 26.3429 8.51429 20C8.51429 13.6571 13.6571 8.51428 20 8.51428C26.3429 8.51428 31.4857 13.6571 31.4857 20C31.4857 26.3429 26.3429 31.4857 20 31.4857Z" fill="black"/>
<path d="M119.886 0C108.857 0 99.8857 8.97143 99.8857 20C99.8857 31.0286 108.857 40 119.886 40C130.914 40 139.886 31.0286 139.886 20C139.886 8.97143 130.971 0 119.886 0ZM119.886 31.4857C113.543 31.4857 108.4 26.3429 108.4 20C108.4 13.6571 113.543 8.51428 119.886 8.51428C126.229 8.51428 131.371 13.6571 131.371 20C131.371 26.3429 126.229 31.4857 119.886 31.4857Z" fill="black"/>
<path d="M167.341 48H164.243V59.0482C162.936 57.5925 161.145 56.6594 159.129 56.6594C155.21 56.6594 152 60.168 152 64.4603C152 68.6781 155.135 71.9627 159.129 71.9627C161.145 71.9627 162.974 71.1042 164.243 69.7232V71.4774H167.303H169.879V68.3421H167.303V48H167.341ZM159.204 68.8647C156.89 68.8647 154.986 66.9611 154.986 64.4603C154.986 61.8476 156.964 59.7201 159.204 59.7201C161.443 59.7201 163.421 61.8476 163.421 64.4603C163.459 66.9611 161.555 68.8647 159.204 68.8647Z" fill="#231F20"/>
<path d="M214.967 56.6594C212.952 56.6594 211.16 57.5552 209.854 59.0482V48H206.793H204.218V51.1353H206.793V71.5148H209.854V69.7605C211.123 71.1415 212.952 72 214.967 72C218.961 72 222.096 68.7154 222.096 64.4977C222.096 60.168 218.887 56.6594 214.967 56.6594ZM214.893 68.8647C212.579 68.8647 210.675 66.9611 210.675 64.4603C210.675 61.8476 212.653 59.7201 214.893 59.7201C217.132 59.7201 219.11 61.8476 219.11 64.4603C219.11 66.9611 217.207 68.8647 214.893 68.8647Z" fill="#231F20"/>
<path d="M184.921 57.1073H181.524L177.829 66.9984L174.134 57.1073H170.737L176.112 71.4774H176.149H179.509H179.546L183.726 60.2426H185.928V57.1073H184.921Z" fill="#231F20"/>
<path d="M196.491 57.1073C195.073 57.1073 193.804 57.5552 192.722 58.339V48H189.661V68.3795H187.123V71.5148H189.661H192.722V65.2068V64.9082C192.722 62.2208 194.327 60.168 196.491 60.168C198.806 60.168 199.627 62.5941 199.627 64.9082V65.2068V71.4774H202.687V65.2068V64.9082V64.6096C202.575 60.1306 200.112 57.1073 196.491 57.1073Z" fill="#231F20"/>
<path d="M132.148 71H133.45V69.81H133.506C133.842 70.706 134.598 71.168 135.592 71.168C137.412 71.168 138.504 69.726 138.504 67.374C138.504 65.022 137.412 63.58 135.592 63.58C134.598 63.58 133.842 64.042 133.506 64.938H133.45V60.64H132.148V71ZM135.214 70.034C134.234 70.034 133.45 69.474 133.45 68.704V66.044C133.45 65.274 134.234 64.714 135.214 64.714C136.376 64.714 137.118 65.54 137.118 66.758V67.99C137.118 69.208 136.376 70.034 135.214 70.034ZM143.097 68.382L142.677 69.74H142.607L142.229 68.382L140.619 63.748H139.317L142.005 71.294L141.515 72.694H140.325V73.8H141.039C142.145 73.8 142.495 73.492 142.831 72.582L145.981 63.748H144.721L143.097 68.382Z" fill="black"/>
</svg>
