<svg width="22" height="15" viewBox="0 0 22 15" fill="none" xmlns="http://www.w3.org/2000/svg">
<path fill-rule="evenodd" clip-rule="evenodd" d="M19.8199 7.5C18.17 4.13 14.79 2 11 2C7.20996 2 3.82996 4.13 2.18005 7.5C3.82996 10.87 7.20996 13 11 13C14.79 13 18.17 10.87 19.8199 7.5ZM0 7.5C1.72998 3.10999 6 0 11 0C16 0 20.27 3.10999 22 7.5C20.27 11.89 16 15 11 15C6 15 1.72998 11.89 0 7.5ZM13.5 7.5C13.5 6.12 12.38 5 11 5C9.62 5 8.5 6.12 8.5 7.5C8.5 8.88 9.62 10 11 10C12.38 10 13.5 8.88 13.5 7.5ZM6.5 7.5C6.5 5.02002 8.52002 3 11 3C13.48 3 15.5 5.02002 15.5 7.5C15.5 9.97998 13.48 12 11 12C8.52002 12 6.5 9.97998 6.5 7.5Z" fill="black"/>
</svg>
