<svg width="22" height="20" viewBox="0 0 22 20" fill="none" xmlns="http://www.w3.org/2000/svg">
<path fill-rule="evenodd" clip-rule="evenodd" d="M3.69 4.54993L1.01001 1.86993L2.41998 0.449951L20.15 18.1899L18.74 19.6L15.32 16.1799C13.98 16.71 12.52 16.9999 11 16.9999C6 16.9999 1.72998 13.89 0 9.49994C0.77002 7.52997 2.06 5.82996 3.69 4.54993ZM11.12 11.98L8.51001 9.36993C8.51001 9.3949 8.50751 9.41492 8.505 9.43494C8.5025 9.45496 8.5 9.47498 8.5 9.49994C8.5 10.8799 9.62 11.9999 11 11.9999C11.0398 11.9999 11.0797 11.99 11.1194 11.9801L11.12 11.98ZM6.85999 7.71997L5.10999 5.96997C3.90002 6.88995 2.88 8.06995 2.17999 9.49994C3.83002 12.8699 7.21002 14.9999 11 14.9999C11.95 14.9999 12.87 14.8599 13.75 14.6199L12.77 13.64C12.23 13.8699 11.63 13.9999 11 13.9999C8.52002 13.9999 6.5 11.98 6.5 9.49994C6.5 8.86993 6.63 8.26996 6.85999 7.71997ZM11 4C14.79 4 18.17 6.13 19.82 9.5C19.23 10.72 18.4 11.77 17.41 12.62L18.82 14.03C20.21 12.8 21.31 11.26 22 9.5C20.27 5.10999 16 2 11 2C9.72998 2 8.51001 2.20001 7.35999 2.57001L9.01001 4.21997C9.65997 4.09003 10.32 4 11 4ZM9.92999 5.14001L12 7.21002C12.57 7.46002 13.03 7.91998 13.28 8.48999L15.35 10.56C15.43 10.22 15.49 9.85999 15.49 9.48999C15.5 7.01001 13.48 5 11 5C10.63 5 10.28 5.04999 9.92999 5.14001Z" fill="black"/>
</svg>
